<svg width="80" height="50" viewBox="0 0 80 50" fill="none" xmlns="http://www.w3.org/2000/svg">
<g clip-path="url(#clip0_920_786)">
<path d="M0 14.7776L3.963 28.7734L17.8693 24.7849L13.9063 10.7891L0 14.7776ZM13.2143 21.8209C13.2805 22.0553 13.1454 22.299 12.9126 22.3655L6.90707 24.0875C6.67423 24.154 6.43207 24.0181 6.36594 23.7847L4.65501 17.7406C4.58888 17.5062 4.72393 17.2625 4.95677 17.196L10.9623 15.474C11.1951 15.4075 11.4373 15.5434 11.5034 15.7768L13.2143 21.8209Z" fill="#F36F36"/>
<path d="M23.4017 0C19.91 0 17.0786 2.84865 17.0786 6.36377C17.0786 9.87889 19.9091 12.7275 23.4017 12.7275C26.8944 12.7275 29.7248 9.87889 29.7248 6.36377C29.7248 2.84865 26.8934 0 23.4017 0ZM23.4017 9.73548C21.5511 9.73548 20.0516 8.22538 20.0516 6.36377C20.0516 4.50217 21.552 2.99207 23.4017 2.99207C25.2514 2.99207 26.7519 4.50217 26.7519 6.36377C26.7519 8.22538 25.2514 9.73548 23.4017 9.73548Z" fill="#2E6955"/>
<path d="M5.96172 40.8298L0.0624008 46.8645H11.861L5.96172 40.8298ZM5.96172 42.8329L8.93374 45.8737H2.98971L5.96172 42.8329Z" fill="#2F62AD"/>
<path d="M16.1398 30.5609L11.0685 31.9895L9.76266 37.1234L13.5273 40.8288L18.5986 39.4003L19.9044 34.2663L16.1398 30.5609ZM16.8076 37.6371L14.1494 38.386L12.1759 36.4438L12.8604 33.7526L15.5186 33.0037L17.4921 34.9459L16.8076 37.6371Z" fill="#F6D333"/>
<path d="M30.6031 29.2655L29.3401 26.2153H23.2797L22.0354 29.2655H20.358L25.5169 16.5576H26.9959L32.3168 29.2655H30.6031ZM26.2927 18.7539L23.8758 24.7633H28.7459L26.2927 18.7539Z" fill="#333333"/>
<path d="M34.1749 29.2655V15.9586H35.7079V29.2655H34.1749Z" fill="#333333"/>
<path d="M47.0903 19.4616H48.3169V29.2645H47.0362L46.8742 27.776C46.4169 28.3206 45.8608 28.7415 45.2061 29.0377C44.5504 29.3339 43.8323 29.483 43.0509 29.483C41.6194 29.483 40.4235 28.9955 39.4614 28.0216C38.4993 27.0477 38.0187 25.8282 38.0187 24.3631C38.0187 22.898 38.4993 21.6794 39.4614 20.7045C40.4235 19.7306 41.6194 19.2432 43.0509 19.2432C43.8444 19.2432 44.569 19.395 45.2247 19.6969C45.8804 19.9996 46.4364 20.4233 46.8928 20.9679L47.0912 19.4616H47.0903ZM40.6051 26.9502C41.2841 27.6467 42.1409 27.9944 43.1757 27.9944C44.2105 27.9944 45.0636 27.6495 45.737 26.9596C46.4104 26.2697 46.7475 25.4045 46.7475 24.3631C46.7475 23.3216 46.4104 22.4565 45.737 21.7666C45.0636 21.0767 44.2095 20.7317 43.1757 20.7317C42.1419 20.7317 41.2841 21.0795 40.6051 21.7759C39.9252 22.4724 39.5862 23.3348 39.5862 24.3631C39.5862 25.3914 39.9261 26.2547 40.6051 26.9502Z" fill="#333333"/>
<path d="M55.4233 27.8313H56.4878V29.2655H55.2249C54.179 29.2655 53.3547 28.9599 52.754 28.3487C52.1523 27.7376 51.8524 26.8996 51.8524 25.8347V20.8601H50.1387V20.5883L53.1507 17.3928H53.3854V19.4625H56.4338V20.8601H53.3854V25.7804C53.3854 26.2284 53.4637 26.6034 53.6201 26.9061C53.7766 27.2089 54.0076 27.4386 54.3149 27.596C54.6214 27.7535 54.9911 27.8323 55.4242 27.8323L55.4233 27.8313Z" fill="#333333"/>
<path d="M66.7152 19.4616H67.9419V29.2645H66.6612L66.4992 27.776C66.0419 28.3206 65.4858 28.7415 64.8311 29.0377C64.1754 29.3339 63.4573 29.483 62.6759 29.483C61.2444 29.483 60.0485 28.9955 59.0864 28.0216C58.1243 27.0477 57.6437 25.8282 57.6437 24.3631C57.6437 22.898 58.1243 21.6794 59.0864 20.7045C60.0485 19.7306 61.2444 19.2432 62.6759 19.2432C63.4694 19.2432 64.194 19.395 64.8497 19.6969C65.5054 19.9996 66.0614 20.4233 66.5178 20.9679L66.7162 19.4616H66.7152ZM60.231 26.9502C60.91 27.6467 61.7669 27.9944 62.8016 27.9944C63.8364 27.9944 64.6895 27.6495 65.3629 26.9596C66.0363 26.2697 66.3734 25.4045 66.3734 24.3631C66.3734 23.3216 66.0363 22.4565 65.3629 21.7666C64.6895 21.0767 63.8354 20.7317 62.8016 20.7317C61.7678 20.7317 60.91 21.0795 60.231 21.7759C59.5511 22.4724 59.2121 23.3348 59.2121 24.3631C59.2121 25.3914 59.5521 26.2547 60.231 26.9502Z" fill="#333333"/>
<path d="M75.1758 29.483C73.8654 29.483 72.8157 29.0864 72.0278 28.2934C71.2399 27.5004 70.8459 26.445 70.8459 25.1251V19.4606H72.3789V24.8702C72.3789 25.5123 72.4935 26.0653 72.7217 26.5312C72.9499 26.9971 73.2749 27.357 73.6959 27.611C74.1169 27.8651 74.6096 27.9925 75.1749 27.9925C76.0411 27.9925 76.7201 27.7141 77.2137 27.1573C77.7064 26.6006 77.9532 25.8385 77.9532 24.8702V19.4606H79.4862V25.1251C79.4862 26.444 79.0951 27.5004 78.3136 28.2934C77.5313 29.0864 76.4854 29.483 75.1749 29.483H75.1758Z" fill="#333333"/>
<path d="M36.8442 46.6958C34.9684 46.6958 33.4196 46.0781 32.1995 44.8445C30.9784 43.61 30.3684 42.0427 30.3684 40.1427C30.3684 38.2426 30.9784 36.6754 32.1995 35.4408C33.4196 34.2063 34.9684 33.5895 36.8442 33.5895C37.8063 33.5895 38.6986 33.7742 39.5229 34.1435C40.3462 34.5129 41.0438 35.0359 41.6157 35.7136C42.1866 36.3913 42.5861 37.1843 42.8153 38.0917H41.2096C40.8724 37.1722 40.3192 36.4523 39.5499 35.9311C38.7805 35.4108 37.878 35.1503 36.8442 35.1503C35.4248 35.1503 34.2615 35.6199 33.3534 36.5572C32.4453 37.4955 31.9918 38.6935 31.9918 40.152C31.9918 41.6106 32.4453 42.8057 33.3534 43.7375C34.2615 44.6692 35.4248 45.1351 36.8442 45.1351C37.9023 45.1351 38.8225 44.8595 39.6039 44.3093C40.3853 43.759 40.9385 42.9932 41.2636 42.0127H42.887C42.5265 43.4534 41.8019 44.5942 40.7131 45.435C39.6244 46.2768 38.3344 46.6967 36.8442 46.6967V46.6958Z" fill="#333333"/>
<path d="M44.9798 34.9862V33.2249H46.6395V34.9862H44.9798ZM45.0515 46.4961V36.6932H46.5845V46.4961H45.0515Z" fill="#333333"/>
<path d="M53.6918 45.062H54.7564V46.4961H53.4935C52.4475 46.4961 51.6233 46.1906 51.0225 45.5794C50.4209 44.9682 50.121 44.1302 50.121 43.0654V38.0908H48.4072V37.8189L51.4193 34.6235H51.654V36.6932H54.7024V38.0908H51.654V43.011C51.654 43.4591 51.7322 43.834 51.8887 44.1368C52.0452 44.4396 52.2762 44.6692 52.5835 44.8267C52.8899 44.9842 53.2597 45.0629 53.6928 45.0629L53.6918 45.062Z" fill="#333333"/>
<path d="M63.9193 36.6932H65.5603L60.9249 46.8954C60.5645 47.6941 60.2096 48.3118 59.8603 48.7467C59.5111 49.1826 59.1208 49.5004 58.6877 49.7C58.2546 49.8997 57.7256 50 57.1007 50H56.1805V48.6024H56.974C57.6232 48.6024 58.1103 48.4693 58.4353 48.2031C58.7604 47.9369 59.1208 47.3923 59.5176 46.5692L59.8603 45.825L55.5313 36.6932H57.2087L60.6716 44.118L63.9183 36.6932H63.9193Z" fill="#333333"/>
</g>
<defs>
<clipPath id="clip0_920_786">
<rect width="79.4872" height="50" fill="white"/>
</clipPath>
</defs>
</svg>
